<svg xmlns="http://www.w3.org/2000/svg" viewBox="0 0 671.35 160"><defs><style>.cls-1{isolation:isolate;}.cls-2{fill:#333;}.cls-3{fill:#fff;}.cls-4,.cls-5,.cls-6,.cls-7{fill:#ededed;}.cls-5{mix-blend-mode:multiply;}.cls-6,.cls-7{mix-blend-mode:soft-light;}.cls-6{opacity:0.48;}.cls-7{opacity:0.2;}.cls-8{fill:#d6cf3e;}</style></defs><g class="cls-1"><g id="Layer_2" data-name="Layer 2"><g id="Layer_1-2" data-name="Layer 1"><path class="cls-2" d="M277.49,0a62.22,62.22,0,0,1,17,2.29,63.37,63.37,0,0,1,15.23,6.47,65.07,65.07,0,0,1,12.94,10,64.23,64.23,0,0,1,10,13,64.93,64.93,0,0,1,6.48,15.29,64,64,0,0,1-2.74,41.78A64.25,64.25,0,0,1,302.32,123a62.26,62.26,0,0,1-24.83,5h-32v32h-32V64C213.44,23,246.15,0,277.49,0Z"/><circle class="cls-3" cx="277.43" cy="63.99" r="51.5"/><path class="cls-2" d="M185,64V94.39H138.13V64Z"/><path class="cls-2" d="M350.79,48a46.17,46.17,0,0,1,3.8-18.64A48.74,48.74,0,0,1,380.14,3.79,46.25,46.25,0,0,1,398.77,0h73.42V32H398.77a15.8,15.8,0,0,0-15.95,16,16.41,16.41,0,0,0,1.22,6.3,15.72,15.72,0,0,0,3.41,5.13A15.73,15.73,0,0,0,398.77,64h32a47.15,47.15,0,0,1,18.69,3.74A47.75,47.75,0,0,1,475,93.33a48.45,48.45,0,0,1,0,37.33,48.33,48.33,0,0,1-10.26,15.23,48.87,48.87,0,0,1-15.29,10.32A46.5,46.5,0,0,1,430.79,160H359.72V128h71.07A16,16,0,0,0,437,97.29a16,16,0,0,0-6.25-1.22h-32a46.09,46.09,0,0,1-18.63-3.8,48.6,48.6,0,0,1-25.55-25.6A46.51,46.51,0,0,1,350.79,48Z"/><path class="cls-2" d="M490.38,48a46.16,46.16,0,0,1,3.79-18.64A48.74,48.74,0,0,1,519.72,3.79,46.25,46.25,0,0,1,538.35,0h73.42V32H538.35a15.83,15.83,0,0,0-16,16,16.23,16.23,0,0,0,1.23,6.3,15.54,15.54,0,0,0,3.4,5.13A15.77,15.77,0,0,0,538.35,64h32a47.15,47.15,0,0,1,18.69,3.74,47.84,47.84,0,0,1,25.55,25.55,48.56,48.56,0,0,1,0,37.33,48.29,48.29,0,0,1-25.55,25.55A46.5,46.5,0,0,1,570.38,160H499.3V128h71.08a16,16,0,0,0,6.24-30.69,16,16,0,0,0-6.24-1.22h-32a46.09,46.09,0,0,1-18.63-3.8,48.6,48.6,0,0,1-25.55-25.6A46.5,46.5,0,0,1,490.38,48Z"/><path class="cls-2" d="M671.35,160h-32V0h32Z"/><path class="cls-2" d="M53.24,111.31a17.68,17.68,0,0,0,3.53.71c1.17.11,2.35.17,3.53.17A29.57,29.57,0,0,0,68.78,111a30.26,30.26,0,0,0,7.66-3.47,28.44,28.44,0,0,0,6.4-5.51,28.85,28.85,0,0,0,4.57-7.22l22,22.16a59.12,59.12,0,0,1-9.65,10.69,61,61,0,0,1-11.79,8,59.22,59.22,0,0,1-13.34,5,60.4,60.4,0,0,1-14.38,1.71,59.58,59.58,0,0,1-42.61-17.53A60.61,60.61,0,0,1,4.74,105.19,64.77,64.77,0,0,1,0,80.11,66.84,66.84,0,0,1,4.74,54.54,57.8,57.8,0,0,1,36.87,22.13,60.93,60.93,0,0,1,60.3,17.61a59.66,59.66,0,0,1,14.44,1.76A60.34,60.34,0,0,1,100,32.55a59.93,59.93,0,0,1,9.7,10.74ZM68.67,49.25a17.13,17.13,0,0,0-4.13-1A41.46,41.46,0,0,0,60.3,48a30.17,30.17,0,0,0-11.63,2.26,27.72,27.72,0,0,0-9.48,6.45,30.24,30.24,0,0,0-6.34,10.09,36.16,36.16,0,0,0-2.32,13.28c0,1.1.06,2.35.17,3.75a42.45,42.45,0,0,0,.55,4.24c.26,1.43.57,2.81.94,4.14a15,15,0,0,0,1.43,3.52Z"/><circle class="cls-3" cx="277.43" cy="63.99" r="48.88" transform="translate(-2.49 11.95) rotate(-2.46)"/><path class="cls-4" d="M309.8,27.37a48.88,48.88,0,0,1-75.23,60.12A48.88,48.88,0,1,0,309.8,27.37Z"/><path class="cls-5" d="M312.24,29.68a48.88,48.88,0,0,1-74.07,63.41,48.87,48.87,0,1,0,74.07-63.41Z"/><path class="cls-2" d="M277.43,14a50,50,0,1,0,50,50A50.06,50.06,0,0,0,277.43,14Zm-40.82,66.5a43.13,43.13,0,0,1-6.24-18.56c3-10.47,8.15-15.8,9.18-16.78,5.5.77,12.37,1,14.39,1.08-.22,2.68.14,11.05,6.54,21A73.49,73.49,0,0,0,251.4,83.7C242,84.71,237.14,80.93,236.61,80.49Zm54.07-44.35c1.55,5,6,16.38,6.71,18.28a76.77,76.77,0,0,1-14.85,15.94,101.86,101.86,0,0,0-21.05-3.67C254.55,56,255,47.17,255.09,45.93L269,30.53C271,30.73,283.66,32.16,290.68,36.14ZM261,19.7a96.18,96.18,0,0,0-11.52,5.59,47.41,47.41,0,0,1,13.76-6.9A22.66,22.66,0,0,0,261,19.7ZM238.8,44.32c-1.05,1-5.79,5.78-8.92,15.38a47.51,47.51,0,0,1,11.79-27.31A28.39,28.39,0,0,0,238.8,44.32Zm47.54,46.87c0-1.82-.29-12.27-3-20a78.86,78.86,0,0,0,14.93-16A132.87,132.87,0,0,0,314.48,59a58.43,58.43,0,0,1,3.22,19.79c-7.92,11.5-13.26,15.06-14,15.55C292.45,95,287.35,91.91,286.34,91.19Zm36-10.85-3.48-1.74a58.38,58.38,0,0,0-3.32-20.11A58.77,58.77,0,0,0,318.87,45a30.49,30.49,0,0,1,2.84,1.12,47.82,47.82,0,0,1,.59,34.23Zm-1.23-35.73c-1.09-.45-2-.73-2.33-.84A63.89,63.89,0,0,0,303.84,28a24.73,24.73,0,0,0-5.27-6.82A48.07,48.07,0,0,1,321.07,44.61ZM295,19.58c2.18,1.71,5.75,4.87,7.64,8.5a45.09,45.09,0,0,0-11.54,7c-7.29-4-19.74-5.44-21.92-5.66a31.07,31.07,0,0,0-6.93-9.15,33.75,33.75,0,0,1,8.39-3.53,47.88,47.88,0,0,1,6.81-.49A47.37,47.37,0,0,1,295,19.58Zm-57.17,71,.21,0-.33-.72a16.72,16.72,0,0,1-1.07-8C238.18,83,242,85,248.21,85a29.6,29.6,0,0,0,3.29-.19,59.68,59.68,0,0,0,4.13,5.94c2.4,3,6.1,7.11,10.31,9.51a28.79,28.79,0,0,0,0,8.31,20,20,0,0,1-5.82-.08A48,48,0,0,1,237.81,90.6Zm34.08,20.82a12.18,12.18,0,0,1-4.75-2.68,27,27,0,0,1-.09-8.3,50.3,50.3,0,0,0,18.73-8.26c1.22.85,5.61,3.37,14.67,3.37.9,0,1.85,0,2.84-.08.18,5.69-2,8.69-2.06,8.72l-.61.79,1.08.12a47.53,47.53,0,0,1-24.27,6.64A48.34,48.34,0,0,1,271.89,111.42Z"/><ellipse class="cls-6" cx="251.27" cy="33.26" rx="16.36" ry="6.83" transform="translate(38.53 171.05) rotate(-40.47)"/><ellipse class="cls-7" cx="249.47" cy="31.24" rx="9.74" ry="3.4" transform="translate(39.41 169.4) rotate(-40.47)"/><path class="cls-8" d="M289.23,37.33l-.45-.22a6.48,6.48,0,0,1-.94.24c-1.54.25-3.59,1-4.24,3a4.8,4.8,0,0,0,.92,4.51c.71.84,1.17,2.88-.16,4a3.19,3.19,0,0,1-3.68.1c-.66-.43-1.2-.76-2-1.34a1.79,1.79,0,0,0,1.12-2.11,5.43,5.43,0,0,1-3.11.74,2.33,2.33,0,0,0,.64-2.38,5.36,5.36,0,0,1-2,1.29,2.55,2.55,0,0,0,.1-2.57c-.6,1.71-3.21,2.2-5.57,2.58a2.65,2.65,0,0,0-2.52,2.79c-.35-.13-.47-.59-.54-.87a1.19,1.19,0,0,0,0,1.34A2.7,2.7,0,0,0,263.69,52c.36-1.12,1.57-1.27,2.59-1s1.33.71,2,.8a8.25,8.25,0,0,1-1.44.86,1.08,1.08,0,0,1-1.42-.59,1.5,1.5,0,0,0,.57,2.08,4.15,4.15,0,0,0,2.78.25c.84-.11,1,.8.74,1.63a1.43,1.43,0,0,0,.86-1.33c1.12.78,1.35,2.55,1.05,3.88a2.2,2.2,0,0,0,1.37-1.94,5.32,5.32,0,0,1-.36,3.2,1.53,1.53,0,0,0,1.42-1.41,2.61,2.61,0,0,1-.77,2.88c-1.43,1.49-4.16,1.15-7.08,1.73a6.49,6.49,0,0,0-3.41,2,103.15,103.15,0,0,1,19.59,3.44,75.83,75.83,0,0,0,13.27-14.25C294.16,50.94,290.76,42.1,289.23,37.33Z"/></g></g></g></svg>